Coordinates
version=1
nRows=11
nColumns=32
inDegrees=yes

Units are S.I. units (second, meters, Newtons, ...)
If the header above contains a line with 'inDegrees', this indicates whether rotational values are in degrees (yes) or radians (no).

endheader
time	pelvis_tilt	pelvis_list	pelvis_rotation	pelvis_tx	pelvis_ty	pelvis_tz	hip_flexion_r	hip_adduction_r	hip_rotation_r	knee_angle_r	knee_adduction_r	med_cond_adduction_r	lat_cond_adduction_r	patella_r_constrained_knee_angle	ankle_angle_r	subtalar_angle_r	mtp_angle_r	hip_flexion_l	hip_adduction_l	hip_rotation_l	knee_angle_l	knee_adduction_l	med_cond_adduction_l	lat_cond_adduction_l	patella_l_constrained_knee_angle	ankle_angle_l	subtalar_angle_l	mtp_angle_l	lumbar_extension	lumbar_bending	lumbar_rotation
      2.65500000	     -0.30344504	     -3.29139232	     -3.00418805	      0.16061076	      0.43504263	     -1.21252424	     96.09953271	    -44.35798798	      5.39076532	   -126.81948426	     -9.82521010	      0.00000000	      0.00000000	     -2.21341756	     29.40062557	     16.13803222	      0.00000000	    106.66866984	    -48.56828655	     17.82803828	   -127.54808043	     -9.80534892	     -0.00000000	     -0.00000000	     -2.22613396	     28.63489511	     19.13985307	     -0.00000000	    -37.92082229	      3.07434833	     -0.03454843
      2.66000000	     -0.48901988	     -3.21522141	     -2.94173975	      0.16025163	      0.43664747	     -1.21257335	     96.07014358	    -44.40783282	      5.29437722	   -126.54417655	     -9.82020493	      0.00000000	     -0.00000000	     -2.20861253	     29.39116867	     16.26677899	      0.00000000	    106.40621535	    -48.53664675	     17.37574056	   -127.28782993	     -9.80137801	      0.00000000	      0.00000000	     -2.22159173	     28.59506887	     19.13501586	      0.00000000	    -37.73585222	      3.02736893	     -0.14019582
      2.66500000	     -0.69684101	     -3.18491652	     -2.94746306	      0.15982785	      0.43837426	     -1.21250425	     95.96186269	    -44.35845608	      5.05768228	   -126.25304120	     -9.81615392	      0.00000000	      0.00000000	     -2.20353126	     29.37801816	     16.27296660	      0.00000000	    106.22513110	    -48.55603893	     17.02860220	   -126.99336986	     -9.79721871	      0.00000000	      0.00000000	     -2.21645243	     28.55063036	     19.13374534	     -0.00000000	    -37.54992459	      3.01714665	     -0.11464255
      2.67000000	     -0.92312684	     -3.19661617	     -2.99446606	      0.15938075	      0.44016131	     -1.21238810	     95.79594701	    -44.25387755	      4.71990705	   -125.94656246	     -9.81189058	      0.00000000	      0.00000000	     -2.19818220	     29.36190119	     16.24992097	     -0.00000000	    106.13109111	    -48.60458097	     16.78071367	   -126.68571357	     -9.79250912	     -0.00000000	      0.00000000	     -2.21108282	     28.48813913	     19.13194869	      0.00000000	    -37.34381561	      2.98188795	     -0.12365113
      2.67500000	     -1.14032553	     -3.19183426	     -2.98328665	      0.15895766	      0.44209076	     -1.21237568	     95.62454288	    -44.22859130	      4.41225762	   -125.61260650	     -9.80709792	     -0.00000000	     -0.00000000	     -2.19235357	     29.34800258	     16.22722215	     -0.00000000	    105.95149316	    -48.60111387	     16.43803015	   -126.36011657	     -9.78797971	      0.00000000	      0.00000000	     -2.20540008	     28.43745126	     19.13194283	     -0.00000000	    -37.15464837	      3.02158539	     -0.08991652
      2.68000000	     -1.37360569	     -3.20197313	     -2.99031189	      0.15852986	      0.44405744	     -1.21232618	     95.43996815	    -44.17434590	      4.07915412	   -125.28797914	     -9.80227563	     -0.00000000	     -0.00000000	     -2.18668775	     29.33109081	     16.21296029	     -0.00000000	    105.79252800	    -48.60640153	     16.12198720	   -126.02796287	     -9.78222527	      0.00000000	      0.00000000	     -2.19960290	     28.38292383	     19.13093656	     -0.00000000	    -36.93137832	      3.09248797	      0.00860636
      2.68500000	     -1.53487429	     -3.53816839	     -2.89241927	      0.15815974	      0.44631548	     -1.21284511	     94.70824711	    -44.30845327	      3.20654186	   -124.86160211	     -9.79755685	      0.00000000	      0.00000000	     -2.17924607	     29.33090829	     16.33562376	     -0.00000000	    105.94476066	    -48.43348139	     16.29247417	   -125.70811514	     -9.77439704	     -0.00000000	     -0.00000000	     -2.19402051	     28.29779157	     19.14031211	      0.00000000	    -36.81159877	      3.46981020	     -0.08377475
      2.69000000	     -1.76091978	     -3.43877670	     -2.93807769	      0.15770116	      0.44852428	     -1.21261740	     94.61021179	    -44.18647292	      2.99960367	   -124.50754552	     -9.79151164	      0.00000000	     -0.00000000	     -2.17306661	     29.30728629	     16.26529455	      0.00000000	    105.62210292	    -48.53190551	     15.77755001	   -125.34308626	     -9.77111686	      0.00000000	      0.00000000	     -2.18764955	     28.23834858	     19.13326390	      0.00000000	    -36.59667368	      3.42935411	      0.05813411
      2.69500000	     -1.98259704	     -3.50269322	     -2.96171680	      0.15726311	      0.45085260	     -1.21256886	     94.27314754	    -44.10900726	      2.51169035	   -124.11889126	     -9.78682503	     -0.00000000	     -0.00000000	     -2.16628332	     29.28716548	     16.17059578	     -0.00000000	    105.47010011	    -48.55890767	     15.51952338	   -124.96304549	     -9.76468651	     -0.00000000	     -0.00000000	     -2.18101659	     28.17670735	     19.14164404	     -0.00000000	    -36.39556988	      3.62575248	      0.31722826
      2.70000000	     -2.19768341	     -3.46877624	     -2.94914416	      0.15686793	      0.45325440	     -1.21252555	     94.05120215	    -44.08052661	      2.20733676	   -123.72313428	     -9.78003669	     -0.00000000	     -0.00000000	     -2.15937605	     29.26879794	     16.22442903	     -0.00000000	    105.15975872	    -48.57967204	     15.06485613	   -124.56957779	     -9.75810387	     -0.00000000	     -0.00000000	     -2.17414928	     28.09954926	     19.13719570	     -0.00000000	    -36.16340012	      3.49401453	      0.10202565
      2.70500000	     -2.39985303	     -3.49659368	     -2.88838068	      0.15649818	      0.45579262	     -1.21264248	     93.72030569	    -44.12155273	      1.80842745	   -123.30065786	     -9.77271641	     -0.00000000	     -0.00000000	     -2.15200245	     29.25323922	     16.34933396	     -0.00000000	    104.86304395	    -48.53229668	     14.66554892	   -124.17095101	     -9.74984273	      0.00000000	      0.00000000	     -2.16719193	     28.02464581	     19.14145773	     -0.00000000	    -35.95090294	      3.55618055	      0.01140357
